<svg width="1618" height="386" viewBox="0 0 1618 386" fill="none" xmlns="http://www.w3.org/2000/svg">
<path d="M520.516 2.72784H516.493V385.568H520.516V2.72784Z" fill="#FDB913"/>
<path d="M423.826 363.124H413.338C412.907 363.124 410.034 363.412 410.034 362.549C410.034 362.261 410.178 361.83 410.321 361.542L416.643 346.004C416.786 345.572 417.505 343.414 418.223 343.414C418.798 343.414 419.516 345.572 419.66 346.004L425.838 360.535C425.838 360.679 426.412 362.117 426.412 362.405C426.412 363.412 424.257 363.124 423.826 363.124ZM447.244 382.979L446.957 382.691C446.526 382.691 446.095 382.547 445.808 382.547C442.36 381.828 440.923 377.512 439.63 374.634L421.815 332.192C421.671 331.617 421.24 330.61 420.522 330.61C419.516 330.61 419.229 331.761 419.085 332.48L401.845 374.778C401.27 376.361 399.69 380.245 398.54 381.396C397.678 382.259 396.529 382.403 395.236 382.547C395.236 382.547 394.23 382.691 393.799 382.691L391.644 382.979C391.069 383.41 391.357 384.705 391.788 384.993C392.937 384.993 395.092 384.849 395.092 384.849C397.391 384.849 399.833 384.561 402.132 384.561C404.143 384.561 406.011 384.705 408.022 384.849C408.022 384.849 410.178 384.993 411.327 384.993C411.902 384.705 412.045 383.41 411.471 382.979L409.172 382.691C408.741 382.691 408.022 382.547 408.022 382.547C406.011 382.259 403.425 381.972 403.425 379.67C403.425 378.087 404.143 376.361 404.718 375.066L407.304 368.735C408.597 365.714 408.166 365.426 411.614 365.426H423.683C427.993 365.426 427.274 365.426 429.142 369.743L432.015 376.217C432.446 377.368 433.308 379.238 433.308 380.389C433.308 382.547 431.01 382.691 428.855 382.835C428.855 382.835 428.136 382.835 427.562 382.979L425.407 383.123C424.832 383.554 425.119 384.849 425.55 385.137C426.7 385.137 428.855 384.993 428.855 384.993C431.441 384.849 433.883 384.705 436.325 384.705C439.486 384.705 442.503 384.849 445.664 384.993C446.67 384.993 445.808 384.993 446.957 385.137C447.532 384.705 447.675 383.41 447.244 382.979Z" fill="white"/>
<path d="M371.674 343.99C371.674 335.501 371.53 334.063 366.358 333.631L364.203 333.487C363.628 333.199 363.916 331.761 364.347 331.473C368.657 331.617 371.674 331.761 375.266 331.761C378.714 331.761 381.731 331.617 386.041 331.473C386.616 331.761 386.759 333.199 386.185 333.487L384.03 333.631C378.857 334.063 378.714 335.358 378.714 343.99V372.62C378.714 381.109 378.857 382.26 384.03 382.835L386.185 383.123C386.759 383.41 386.472 384.849 386.041 385.137C381.731 384.993 378.714 384.849 375.266 384.849C371.674 384.849 368.657 384.993 364.347 385.137C363.772 384.849 363.628 383.554 364.203 383.123L366.358 382.835C371.53 382.26 371.674 381.109 371.674 372.62V343.99Z" fill="white"/>
<path d="M326.705 371.325C326.705 374.203 326.849 378.375 328.717 380.245C330.441 382.116 333.314 382.547 336.188 382.547C344.52 382.547 350.986 379.238 350.986 371.182C350.986 364.707 347.25 357.226 332.308 357.226C327.28 357.226 326.849 357.658 326.849 359.384V371.325H326.705ZM326.705 352.478C326.705 354.78 326.849 354.924 331.59 354.78C341.216 354.492 346.388 352.047 346.388 344.422C346.388 336.509 339.492 333.487 332.308 333.487C330.297 333.487 328.86 333.631 327.998 333.919C326.993 334.207 326.705 334.638 326.705 336.077V352.478ZM319.091 341.688C319.091 335.645 318.66 334.207 314.493 333.775L311.476 333.487C311.189 333.2 310.902 331.617 311.62 331.473C316.648 331.042 323.114 330.898 331.877 330.898C337.768 330.898 343.515 331.329 347.681 333.2C351.704 334.926 354.865 338.091 354.865 343.414C354.865 349.313 350.842 352.334 345.239 354.492C345.239 355.356 345.957 355.5 346.963 355.643C351.991 356.507 359.606 360.535 359.606 369.167C359.606 378.519 351.56 384.993 334.607 384.993C331.877 384.993 327.28 384.705 323.257 384.705C319.091 384.705 315.93 384.849 312.482 384.993C311.907 384.705 311.764 383.411 312.338 382.979L314.062 382.691C319.091 381.972 319.235 381.109 319.235 372.476V341.688H319.091Z" fill="white"/>
<path d="M302.282 382.835C301.85 382.835 300.988 382.691 300.988 382.691C300.126 382.547 299.264 382.403 298.546 381.828C297.397 380.677 297.54 377.224 297.54 375.785V340.537C297.54 338.954 297.109 335.645 298.259 334.494C298.833 333.919 299.983 333.775 300.988 333.775C301.563 333.775 301.563 333.775 302.138 333.631L304.437 333.487C305.011 333.199 304.724 331.761 304.293 331.473C303.144 331.473 301.994 331.473 300.988 331.473H291.506C290.501 331.473 289.495 331.473 288.92 332.624L269.668 372.908L252.572 334.063C251.997 332.768 251.853 331.617 250.129 331.617H240.216C239.21 331.617 238.061 331.617 236.912 331.617C236.337 331.905 236.193 333.343 236.768 333.631L239.067 333.775C239.498 333.775 240.36 333.919 240.36 333.919C244.095 334.207 244.239 334.926 243.952 338.954L241.078 376.792C240.791 380.533 240.647 382.547 236.624 382.979C236.624 382.979 235.762 383.123 235.331 383.123L233.176 383.41C232.602 383.842 232.745 385.137 233.32 385.425C234.469 385.425 236.624 385.281 236.624 385.281C238.636 385.137 240.647 384.993 242.802 384.993C244.957 384.993 247.256 385.137 249.411 385.281C250.417 385.281 251.566 385.281 252.715 385.425C253.29 385.137 253.434 383.842 252.859 383.41L250.56 383.123C249.986 383.123 249.267 382.979 249.267 382.979C243.52 382.547 243.664 378.519 243.952 373.627L246.681 338.523H247.4L265.933 381.828C266.077 382.403 266.364 383.41 267.37 383.41C268.232 383.41 268.519 382.403 268.806 381.828L289.639 337.372H290.357V376.073C290.357 377.656 290.501 380.821 288.92 381.972C288.058 382.547 285.328 382.979 285.328 382.979C284.897 382.979 284.61 383.123 284.179 383.123L281.88 383.41C281.306 383.842 281.593 385.137 282.024 385.425C283.173 385.425 285.328 385.281 285.328 385.281C288.346 385.137 291.363 384.993 294.523 384.993C296.678 384.993 300.988 385.137 300.988 385.137C301.994 385.137 303.144 385.281 304.437 385.281C305.011 384.993 305.155 383.698 304.58 383.267L302.282 382.835Z" fill="white"/>
<path d="M220.102 351.759C220.102 346.723 219.959 337.516 218.522 335.07C217.947 334.063 216.367 333.487 214.212 333.343L212.057 333.199C211.482 332.624 211.769 331.617 212.201 331.329C215.505 331.473 218.522 331.617 221.97 331.617C225.562 331.617 227.861 331.473 230.878 331.329C231.596 331.761 231.452 332.768 231.021 333.199L229.01 333.343C226.855 333.487 225.274 334.206 224.7 335.214C223.55 337.803 223.55 347.155 223.55 351.615V360.679C223.55 367.728 222.401 375.066 217.66 379.957C213.925 383.698 207.747 385.856 201.425 385.856C195.535 385.856 189.644 384.849 185.478 381.396C181.024 377.799 178.869 372.045 178.869 362.405V343.414C178.869 335.07 178.725 333.631 173.697 333.343L171.542 333.199C170.967 332.912 171.255 331.473 171.686 331.329C175.996 331.473 178.869 331.617 182.173 331.617C185.622 331.617 188.495 331.473 192.661 331.329C193.236 331.617 193.38 332.912 192.805 333.199L190.794 333.343C185.909 333.775 185.622 335.07 185.622 343.414V360.823C185.622 373.771 189.932 382.259 202.862 382.259C215.218 382.259 219.959 373.052 219.959 360.823V351.759H220.102Z" fill="white"/>
<path d="M134.906 343.846C134.906 335.358 134.762 334.063 129.159 333.775L127.004 333.631C126.429 333.343 126.717 331.905 127.148 331.617C132.033 331.761 135.05 331.905 138.641 331.905C142.089 331.905 145.107 331.761 149.56 331.617C150.135 331.905 150.279 333.343 149.704 333.631L147.549 333.775C142.377 334.207 142.233 335.502 142.233 343.846V371.901C142.233 376.936 142.52 379.094 144.101 380.533C145.107 381.396 146.687 382.403 153.727 382.403C161.198 382.403 163.065 382.116 164.502 381.396C166.226 380.389 168.525 377.512 170.392 373.483C170.967 373.052 172.547 373.34 172.547 373.915C172.547 374.778 170.105 382.979 168.812 385.137C164.358 384.993 155.882 384.849 146.831 384.849H138.641C134.906 384.849 132.176 384.993 127.148 385.137C126.573 384.849 126.429 383.554 127.004 383.123L129.59 382.835C134.762 382.403 134.906 381.253 134.906 372.764V343.846V343.846Z" fill="white"/>
<path d="M116.516 360.391C116.516 347.155 110.339 332.768 94.2475 332.768C85.4837 332.768 74.1338 338.523 74.1338 356.075C74.1338 368.016 80.1679 383.41 96.8336 383.41C106.89 383.41 116.516 376.217 116.516 360.391ZM65.6572 358.665C65.6572 342.551 78.3002 330.322 95.6842 330.322C115.223 330.322 124.993 343.702 124.993 357.945C124.993 374.203 112.063 386 95.6842 386C77.0072 385.856 65.6572 373.052 65.6572 358.665Z" fill="white"/>
<path d="M12.3556 327.157C19.3954 321.69 28.4466 318.956 38.6472 318.956C43.963 318.956 51.2901 319.963 55.8876 321.258C57.0369 321.546 57.7553 321.69 58.6173 321.69C58.761 323.992 59.192 330.034 59.9103 335.933C59.4793 336.652 57.899 336.652 57.3243 336.077C55.8876 329.459 51.4338 321.834 37.3542 321.834C22.4125 321.834 9.76955 331.185 9.76955 351.327C9.76955 371.757 22.6998 382.979 38.6472 382.979C51.1465 382.979 56.7496 374.778 59.0483 369.023C59.7667 368.592 61.2034 368.736 61.6344 369.455C60.916 374.49 58.4736 380.965 56.8933 382.691C55.7439 382.835 54.5946 383.267 53.4452 383.698C51.2901 384.418 44.2503 386 38.0725 386C29.3087 386 20.9758 384.274 13.7923 379.526C6.03414 374.203 0 365.283 0 352.766C0.14367 342.119 5.02845 332.912 12.3556 327.157Z" fill="white"/>
<path d="M352.279 283.276C348.112 283.276 347.968 283.42 347.968 285.866V297.232C347.968 305.72 348.399 306.871 353.284 307.303L355.727 307.591C356.301 307.878 356.014 309.317 355.583 309.605C350.986 309.461 347.968 309.317 344.664 309.317C340.929 309.317 338.055 309.461 334.607 309.605C334.032 309.317 333.889 308.022 334.463 307.591L335.9 307.303C340.785 306.44 340.929 305.72 340.929 297.232V268.314C340.929 259.825 340.354 258.53 335.9 258.243L333.601 258.099C333.027 257.811 333.314 256.372 333.745 256.085C337.912 256.229 340.929 256.372 344.664 256.372C347.968 256.372 350.986 256.229 354.721 256.085C355.296 256.372 355.439 257.811 354.865 258.099L353.284 258.243C348.256 258.674 348.112 259.969 348.112 268.314V277.521C348.112 279.967 348.256 280.111 352.422 280.111H377.133C381.3 280.111 381.444 279.967 381.444 277.521V268.314C381.444 259.825 381.3 258.674 376.128 258.243L374.547 258.099C373.973 257.811 374.26 256.372 374.691 256.085C378.714 256.229 381.587 256.372 385.179 256.372C388.483 256.372 391.5 256.229 395.38 256.085C395.954 256.372 396.098 257.811 395.523 258.099L393.656 258.243C388.627 258.674 388.483 259.969 388.483 268.314V297.232C388.483 305.72 388.627 306.727 393.656 307.303L395.667 307.591C396.242 307.878 395.954 309.317 395.523 309.605C391.357 309.461 388.483 309.317 385.035 309.317C381.444 309.317 378.427 309.461 374.547 309.605C373.973 309.317 373.829 308.022 374.404 307.591L375.984 307.303C381.3 306.44 381.3 305.72 381.3 297.232V285.866C381.3 283.42 381.156 283.276 376.99 283.276H352.279V283.276Z" fill="white"/>
<path d="M304.58 310.324C296.678 310.324 291.65 308.166 289.782 307.303C288.633 305.576 287.484 299.821 287.196 296.081C287.627 295.505 289.064 295.361 289.495 295.793C290.932 299.965 294.811 307.734 305.73 307.734C313.631 307.734 317.511 303.274 317.511 298.527C317.511 294.93 316.649 291.045 309.752 287.305L300.701 282.269C295.96 279.68 290.501 275.076 290.501 268.458C290.501 260.832 297.54 254.646 309.896 254.646C312.769 254.646 316.218 255.078 318.66 255.653C319.953 255.941 321.246 256.085 321.964 256.085C322.826 257.955 323.688 262.559 323.688 265.868C323.257 266.3 321.821 266.587 321.246 266.156C319.953 262.271 317.511 257.092 308.316 257.092C298.977 257.092 296.966 262.271 296.966 266.012C296.966 270.616 301.563 274.069 305.011 275.939L312.626 279.967C318.66 283.132 324.407 287.736 324.407 295.361C324.694 304.281 316.936 310.324 304.58 310.324Z" fill="white"/>
<path d="M264.64 268.458C264.64 259.969 264.496 258.53 259.18 258.099L257.025 257.955C256.451 257.667 256.738 256.228 257.169 255.941C261.623 256.085 264.64 256.228 268.375 256.228C271.967 256.228 274.984 256.085 279.438 255.941C280.013 256.228 280.156 257.667 279.582 257.955L277.283 258.099C271.967 258.53 271.823 259.825 271.823 268.458V297.088C271.823 305.576 271.967 306.727 277.283 307.303L279.582 307.59C280.156 307.878 279.869 309.317 279.438 309.605C274.984 309.461 271.967 309.317 268.375 309.317C264.64 309.317 261.623 309.461 257.169 309.605C256.594 309.317 256.451 308.022 257.025 307.59L259.18 307.303C264.496 306.727 264.64 305.576 264.64 297.088V268.458Z" fill="white"/>
<path d="M228.722 297.232C228.722 305.72 228.866 306.871 233.751 307.303L236.481 307.59C236.912 307.878 236.768 309.317 236.337 309.605C231.596 309.461 228.722 309.317 225.418 309.317C222.114 309.317 219.097 309.461 213.781 309.605C213.35 309.317 213.062 308.022 213.781 307.59L216.798 307.303C221.539 306.871 221.97 305.72 221.97 297.232V261.264C221.97 258.818 221.97 258.674 219.528 258.674H214.93C211.338 258.674 206.741 258.818 204.586 260.689C202.575 262.415 201.713 264.285 200.85 266.299C200.132 266.731 198.983 266.443 198.695 265.724C199.988 262.127 201.281 256.948 201.856 253.783C202.144 253.639 203.149 253.495 203.437 253.783C203.868 256.372 206.741 256.229 210.476 256.229H244.382C248.836 256.229 249.698 256.085 250.848 253.927C251.279 253.783 252.141 253.783 252.284 254.214C251.422 257.523 250.848 263.998 250.991 266.443C250.704 267.019 249.267 267.019 248.836 266.587C248.549 264.573 247.974 261.552 246.681 260.689C244.813 259.25 241.653 258.674 237.055 258.674H231.165C228.722 258.674 228.722 258.818 228.722 261.408V297.232V297.232Z" fill="white"/>
<path d="M179.3 268.458C179.3 259.969 179.156 258.53 173.841 258.099L171.542 257.955C170.967 257.667 171.255 256.228 171.686 255.941C176.139 256.085 179.156 256.228 182.892 256.228C186.484 256.228 189.501 256.085 193.954 255.941C194.529 256.228 194.673 257.667 194.098 257.955L191.799 258.099C186.484 258.53 186.34 259.825 186.34 268.458V297.088C186.34 305.576 186.484 306.727 191.799 307.303L194.098 307.59C194.673 307.878 194.385 309.317 193.954 309.605C189.501 309.461 186.484 309.317 182.892 309.317C179.156 309.317 176.139 309.461 171.686 309.605C171.111 309.317 170.967 308.022 171.542 307.59L173.841 307.303C179.156 306.727 179.3 305.576 179.3 297.088V268.458Z" fill="white"/>
<path d="M133.182 281.118C131.602 281.118 128.297 281.694 128.297 279.536V264.142C128.297 258.099 128.441 257.236 135.768 257.236C144.245 257.236 149.417 261.552 149.417 269.465C149.417 272.918 148.124 276.083 145.107 278.241C141.515 280.831 137.636 281.118 133.182 281.118ZM165.651 307.591L163.353 307.447C162.922 307.447 162.491 307.303 162.06 307.303C158.755 306.727 157.462 303.85 156.026 301.116L148.267 287.736C146.974 285.434 145.538 282.413 142.521 281.982C150.422 280.974 157.606 276.514 157.606 268.602C157.606 259.538 148.698 255.509 139.647 255.509C134.188 255.509 129.303 255.653 123.7 255.653C120.683 255.653 117.091 255.509 113.93 255.509C112.206 255.509 112.206 255.797 112.206 256.804C112.206 258.243 112.781 257.811 114.649 257.955C121.114 258.387 120.826 259.538 120.826 265.005V300.253C120.826 305.289 121.257 306.871 115.942 307.303C115.942 307.303 115.08 307.447 114.649 307.447L112.35 307.734C111.775 308.166 112.063 309.461 112.494 309.749C113.643 309.749 115.798 309.605 115.798 309.605C118.671 309.461 121.688 309.317 124.562 309.317C127.435 309.317 130.309 309.605 133.182 309.605C134.188 309.605 135.337 309.605 136.486 309.749C137.061 309.461 137.205 308.166 136.63 307.734L134.331 307.447C133.9 307.447 133.038 307.303 133.038 307.303C127.723 307.015 128.01 305.432 128.01 300.253V287.017C128.01 286.298 127.866 284.14 128.441 283.564C128.872 282.989 129.734 283.132 130.596 283.132C137.779 283.132 137.779 283.852 141.228 289.894L150.566 306.727C151.284 308.022 151.859 309.605 153.87 309.605H161.916C162.922 309.605 164.071 309.605 165.22 309.749C166.082 309.317 166.226 308.022 165.651 307.591Z" fill="white"/>
<path d="M70.3982 293.491C70.3982 296.944 70.5419 301.692 72.5533 303.706C74.5647 305.864 77.7254 306.296 80.7425 306.296C90.081 306.296 97.1208 302.555 97.1208 293.06C97.1208 285.578 92.9544 276.946 76.2887 276.946C70.6856 276.946 70.2546 277.522 70.2546 279.392V293.491H70.3982ZM70.3982 271.623C70.3982 274.213 70.5419 274.5 75.8577 274.213C86.4893 273.781 92.2361 271.047 92.2361 262.127C92.2361 252.92 84.6216 249.467 76.7197 249.467C74.421 249.467 72.8406 249.611 71.9786 250.042C70.9729 250.33 70.5419 250.762 70.5419 252.488V271.623H70.3982ZM61.9217 259.106C61.9217 252.2 61.4907 250.33 56.7496 249.898L53.4452 249.611C52.8705 249.179 53.0142 247.309 53.5889 247.309C59.192 246.733 66.3755 246.589 76.0014 246.589C82.6102 246.589 88.788 247.021 93.5291 249.179C97.9829 251.193 101.431 254.934 101.431 260.976C101.431 267.738 97.1208 271.191 90.7994 273.925C90.7994 274.932 91.6614 275.22 92.8107 275.363C98.4139 276.371 106.747 280.974 106.747 291.045C106.747 301.98 97.8392 309.317 79.0184 309.317C76.0014 309.317 70.8292 309.029 66.5191 309.029C61.9217 309.029 58.33 309.173 54.4509 309.317C53.8762 309.029 53.5889 307.591 54.3072 307.015L56.1749 306.727C61.6344 305.864 61.9217 304.857 61.9217 294.93V259.106Z" fill="white"/>
<path d="M98.8449 199.687C155.307 199.687 233.464 231.483 290.07 231.483C330.584 231.483 369.95 220.692 392.506 204.723C394.087 195.371 394.949 185.732 394.949 175.949C394.949 80.8498 317.941 3.87885 223.119 3.87885C128.154 3.87885 51.1465 80.9937 51.1465 175.949C51.1465 185.588 52.0085 195.083 53.4452 204.291C59.623 203.284 80.7425 199.687 98.8449 199.687Z" fill="white"/>
<path d="M334.032 136.528L340.785 139.405L355.87 128.759L334.032 136.528Z" fill="#FDB913"/>
<path d="M80.8862 124.73L63.0712 118.4L63.9332 116.242L84.047 123.004H84.1906L86.7767 121.565L87.7824 120.846L65.8009 111.494L66.6629 109.192L115.654 129.046L117.235 128.327L68.818 104.588L69.9673 102.43L121.401 126.457L122.119 126.025L72.1224 97.6826L73.1281 95.5245L145.25 134.801C145.825 133.65 147.118 131.78 147.693 130.629C120.252 104.876 93.8165 85.4535 93.8165 85.4535C93.8165 85.4535 120.97 103.725 154.589 120.558C155.738 119.119 156.6 118.112 157.75 116.674L96.2589 62.7219L97.8393 60.9955L147.405 103.294L101.431 57.2548L103.155 55.5284L154.733 105.452L106.89 51.9316L108.758 50.2052L153.152 97.8265L112.637 46.7523L114.361 45.1697L166.226 108.473C167.519 107.322 168.669 106.459 170.105 105.308C154.445 71.2103 137.205 43.5871 137.205 43.5871C137.205 43.5871 155.451 70.491 180.162 98.6897C181.599 97.8265 183.179 96.9632 184.76 96.2439L184.472 96.1L148.124 23.4452L150.279 22.4381L180.449 80.2742L155.02 20.28L157.319 19.2729L186.484 84.8781L161.916 17.4026L164.215 16.5394L187.633 77.3968L169.1 14.8129L171.255 13.9497L195.535 91.64V91.7839C197.115 91.2084 198.839 90.7768 200.42 90.3452C198.552 53.0826 193.092 21.1432 193.092 21.1432C193.092 21.1432 199.845 52.7948 212.201 88.0432C213.925 87.8994 215.649 87.6116 217.373 87.4677V87.3239H217.516L217.373 87.18L210.907 6.03678H213.206L219.528 70.9226L218.522 5.89291L220.964 5.74903L223.407 77.5406L225.849 5.74903L228.292 5.89291L227.142 71.0665L233.464 6.18065H235.762L229.441 87.3239L229.297 87.4677H229.441C231.165 87.6116 232.745 87.7555 234.469 87.8994C246.681 52.7948 253.434 21.1432 253.434 21.1432C253.434 21.1432 247.974 52.9387 246.107 90.2013C247.831 90.6329 249.411 91.0645 250.991 91.64L275.128 14.2374L277.283 15.1006L258.893 77.6845L282.311 16.971L284.61 17.8342L260.186 85.3097L289.351 19.7045L291.65 20.7116L266.22 80.7058L296.391 22.8697L298.546 23.8768L262.341 96.3877C263.778 97.1071 265.358 97.8265 266.795 98.6897C291.363 70.6348 309.465 43.8748 309.465 43.8748C309.465 43.8748 292.368 71.3542 276.708 105.308C278.145 106.315 279.438 107.466 280.875 108.617L332.165 46.0329L333.889 47.6155L293.374 98.6897L337.768 50.7806L339.636 52.5071L291.65 105.883L343.227 55.96L344.952 57.6865L298.977 103.725L348.543 61.4271L350.124 63.1535L289.351 116.674C290.357 117.825 291.506 119.119 292.368 120.27C325.7 103.437 352.566 85.3097 352.566 85.3097C352.566 85.3097 326.705 104.588 299.408 130.197C300.127 131.492 301.42 133.506 301.994 134.801L372.967 96.1L373.973 98.2581L317.511 130.485L376.415 103.006L377.565 105.164L322.683 131.924L323.688 132.355L379.576 109.768L380.582 112.07L328.573 134.226L329.579 134.657L364.203 123.148L369.375 119.551L371.099 120.846L382.449 117.105L383.311 119.263L373.398 122.716L387.622 133.65L392.219 136.24C373.973 59.4129 305.155 2.44 222.976 2.44C139.36 2.44 69.68 61.4271 52.8706 140.125C53.1579 139.981 53.3016 139.981 53.4453 139.837L55.6003 138.83L56.8934 138.254L80.8862 124.73Z" fill="#FCBA19"/>
<path d="M51.8648 208.463C51.8648 208.463 77.5818 203.284 98.9886 203.284C155.451 203.284 233.607 235.079 290.213 235.079C331.734 235.079 372.392 223.714 394.374 207.025C396.098 197.241 396.96 187.027 396.96 176.668C396.96 162.712 395.236 149.045 392.219 135.952L368.657 122.716L340.929 142.139L322.252 134.801C315.93 137.967 276.996 164.151 276.996 164.151L262.054 153.361L245.963 150.196L224.556 134.657L199.988 151.49C199.988 151.49 172.548 167.46 171.686 167.46C170.68 167.46 138.641 141.995 138.641 141.995L123.987 126.457C121.401 128.039 111.344 132.643 111.344 132.643L110.769 132.787L101 129.766L89.219 123.436L53.3015 139.693C53.1579 139.837 52.8705 139.837 52.7269 139.981C50.1408 151.778 48.8478 164.007 48.8478 176.668C48.9914 187.602 49.9971 198.105 51.8648 208.463Z" fill="#4B6EA7"/>
<path d="M597.29 181.212V115.286C597.29 97.8401 596.738 94.7182 589.19 93.8001L583.299 93.0655C582.01 92.1473 582.01 89.2091 583.483 88.4746C593.792 87.5564 606.495 87.0055 624.537 87.0055C635.951 87.0055 646.812 87.9236 655.281 92.5146C664.117 97.1055 670.561 105.369 670.561 118.224C670.561 135.669 656.754 145.219 647.549 148.891C646.628 149.993 647.549 151.83 648.469 153.299C663.197 176.988 672.954 191.679 685.473 202.146C688.602 204.901 693.205 206.921 698.175 207.288C699.096 207.655 699.28 209.125 698.359 209.859C696.702 210.41 693.757 210.777 690.259 210.777C674.611 210.777 665.222 206.186 652.151 187.639C647.365 180.844 639.817 168.173 634.11 159.91C631.348 155.87 628.403 154.033 621.039 154.033C612.754 154.033 612.386 154.217 612.386 158.073V181.212C612.386 200.494 612.754 202.697 623.432 204.166L627.298 204.717C628.403 205.635 628.034 208.757 626.93 209.308C618.646 208.941 612.386 208.757 605.022 208.757C597.29 208.757 590.663 208.941 582.01 209.308C580.906 208.757 580.538 206.003 581.642 204.717L586.245 204.166C596.922 202.881 597.29 200.494 597.29 181.212ZM612.386 98.5746V141.546C612.386 144.851 612.386 146.871 612.939 147.606C613.491 148.157 616.252 148.524 625.641 148.524C632.269 148.524 639.264 147.79 644.603 143.75C649.574 139.893 653.808 133.466 653.808 120.978C653.808 106.471 644.787 92.6982 624.353 92.6982C612.939 92.6982 612.386 93.4328 612.386 98.5746Z" fill="white"/>
<path d="M742.8 161.746H708.743C703.956 161.746 703.772 162.113 703.772 166.704C703.772 185.252 714.634 201.044 734.332 201.044C740.407 201.044 745.562 199.208 751.269 192.046C753.11 191.495 754.398 192.597 754.583 194.25C748.507 206.737 735.252 211.328 725.679 211.328C713.713 211.328 704.324 206.186 698.985 199.208C693.463 192.046 691.253 183.415 691.253 175.335C691.253 152.748 706.165 133.833 728.257 133.833C744.089 133.833 754.399 144.668 754.399 155.686C754.399 158.257 754.03 159.726 753.662 160.461C753.11 161.562 750.532 161.746 742.8 161.746ZM707.086 156.237H720.157C733.78 156.237 737.83 155.502 739.303 154.401C739.855 154.033 740.407 153.299 740.407 150.911C740.407 145.77 736.909 139.342 726.232 139.342C715.37 139.342 705.981 149.259 705.797 155.319C705.797 155.686 705.797 156.237 707.086 156.237Z" fill="white"/>
<path d="M803.566 133.833C807.8 133.833 814.98 134.751 819.95 136.955C821.423 138.24 822.712 141.179 822.712 144.3C822.712 147.606 820.871 151.095 818.662 151.095C817.741 151.095 816.821 150.728 816.084 149.81C812.034 144.851 805.223 140.077 797.675 140.077C784.788 140.077 772.269 150.177 772.269 169.642C772.269 183.966 782.21 201.044 801.909 201.044C812.586 201.044 818.109 196.27 822.344 190.026C823.816 189.659 825.473 190.944 825.657 192.597C819.398 206.186 805.591 211.328 794.913 211.328C785.156 211.328 776.135 208.206 769.692 201.963C763.249 195.719 759.014 186.721 759.014 174.784C759.014 154.951 773.006 133.833 803.566 133.833Z" fill="white"/>
<path d="M838.724 188.19V156.053C838.724 148.891 838.724 147.973 833.754 144.668L832.097 143.566C831.36 142.831 831.36 140.811 832.281 140.26C836.515 138.791 846.272 134.017 850.875 131.262C851.795 131.446 852.347 131.813 852.347 132.548V143.199C852.347 144.117 852.531 144.668 852.9 144.851C859.343 139.526 866.339 133.833 873.15 133.833C877.753 133.833 881.435 136.771 881.435 141.179C881.435 147.239 876.464 149.626 873.519 149.626C871.678 149.626 870.757 149.075 869.468 148.34C866.707 146.504 863.945 145.402 861.368 145.402C858.423 145.402 856.213 147.055 854.741 149.075C852.9 151.646 852.347 156.971 852.347 163.215V188.19C852.347 201.412 852.716 203.615 859.711 204.166L866.339 204.717C867.627 205.635 867.259 208.757 865.971 209.308C857.318 208.941 851.979 208.757 845.536 208.757C838.908 208.757 833.385 208.941 828.599 209.308C827.31 208.757 826.942 205.635 828.231 204.717L831.729 204.166C838.54 203.065 838.724 201.412 838.724 188.19Z" fill="white"/>
<path d="M932.587 161.746H898.529C893.742 161.746 893.558 162.113 893.558 166.704C893.558 185.252 904.42 201.044 924.118 201.044C930.193 201.044 935.348 199.208 941.055 192.046C942.896 191.495 944.185 192.597 944.369 194.25C938.294 206.737 925.039 211.328 915.466 211.328C903.499 211.328 894.11 206.186 888.772 199.208C883.249 192.046 881.04 183.415 881.04 175.335C881.04 152.748 895.951 133.833 918.043 133.833C933.875 133.833 944.185 144.668 944.185 155.686C944.185 158.257 943.817 159.726 943.448 160.461C942.896 161.562 940.319 161.746 932.587 161.746ZM896.872 156.237H909.943C923.566 156.237 927.616 155.502 929.089 154.401C929.641 154.033 930.193 153.299 930.193 150.911C930.193 145.77 926.696 139.342 916.018 139.342C905.156 139.342 895.767 149.259 895.583 155.319C895.583 155.686 895.583 156.237 896.872 156.237Z" fill="white"/>
<path d="M963.896 178.641L985.804 170.744C988.565 169.826 988.934 168.173 988.934 165.419L989.118 156.971C989.302 150.177 987.093 140.995 975.679 140.995C970.524 140.995 964.265 143.566 963.896 149.259C963.712 152.197 963.528 154.401 962.055 155.502C959.294 157.706 954.323 158.991 951.562 158.991C949.905 158.991 948.985 158.073 948.985 156.421C948.985 146.871 969.788 133.833 983.227 133.833C996.482 133.833 1002.92 141.546 1002.37 155.319L1001.27 187.272C1000.9 195.719 1002.56 203.248 1009.74 203.248C1011.58 203.248 1013.23 202.697 1014.34 202.146C1015.26 201.595 1016.18 200.861 1016.73 200.861C1017.47 200.861 1018.02 201.963 1018.02 203.248C1018.02 204.166 1011.58 211.328 1002.56 211.328C998.138 211.328 993.72 209.675 990.59 205.635C989.854 204.534 988.749 203.065 987.645 203.065C986.356 203.065 984.147 204.717 980.465 206.737C976.415 208.941 972.365 211.328 967.21 211.328C961.871 211.328 957.453 209.859 954.323 207.105C950.826 203.983 948.616 199.392 948.616 194.25C948.616 187.088 952.114 182.864 963.896 178.641ZM962.792 192.046C962.792 195.168 965.001 203.065 974.39 203.065C978.072 203.065 983.779 200.31 985.62 198.474C987.829 196.27 987.829 193.699 988.013 189.843L988.381 179.008C988.381 176.988 987.645 176.621 986.54 176.621C985.436 176.621 982.306 177.355 978.992 178.457C968.131 182.13 962.792 184.884 962.792 192.046Z" fill="white"/>
<path d="M1065.13 144.117H1044.33C1041.2 144.117 1041.01 144.668 1041.01 148.524V182.864C1041.01 193.515 1042.3 203.248 1054.45 203.248C1056.29 203.248 1057.95 202.881 1059.42 202.33C1061.08 201.779 1063.47 199.759 1064.02 199.759C1065.5 199.759 1066.23 201.779 1065.86 202.881C1062.55 206.737 1055.92 211.328 1046.53 211.328C1030.7 211.328 1027.39 202.514 1027.39 191.495V149.442C1027.39 144.484 1027.2 144.117 1023.52 144.117H1018.37C1017.26 143.382 1017.08 141.362 1017.82 140.26C1023.15 138.608 1027.76 136.22 1029.6 134.568C1031.99 132.364 1035.49 127.406 1037.33 123.733C1038.25 123.366 1040.46 123.366 1041.2 124.651V132.915C1041.2 136.22 1041.38 136.404 1044.51 136.404H1064.94C1067.15 138.057 1066.79 143.015 1065.13 144.117Z" fill="white"/>
<path d="M1080.27 188.19V156.053C1080.27 148.891 1080.27 147.973 1075.3 144.668L1073.64 143.566C1072.9 142.831 1072.9 140.811 1073.82 140.26C1078.06 138.791 1088.55 134.017 1092.79 131.262C1093.71 131.262 1094.44 131.629 1094.63 132.364C1094.26 138.791 1093.89 147.606 1093.89 155.135V188.19C1093.89 201.412 1094.26 203.248 1100.89 204.166L1104.75 204.717C1106.04 205.635 1105.67 208.757 1104.38 209.308C1098.86 208.941 1093.52 208.757 1087.08 208.757C1080.45 208.757 1074.93 208.941 1069.77 209.308C1068.48 208.757 1068.12 205.635 1069.4 204.717L1073.27 204.166C1080.08 203.248 1080.27 201.412 1080.27 188.19ZM1086.34 94.1673C1091.86 94.1673 1095.55 98.5746 1095.55 103.716C1095.55 110.327 1090.94 113.266 1085.79 113.266C1080.08 113.266 1076.4 109.042 1076.4 104.084C1076.4 98.0237 1080.82 94.1673 1086.34 94.1673Z" fill="white"/>
<path d="M1149.75 133.833C1170.37 133.833 1187.12 149.259 1187.12 171.846C1187.12 194.801 1171.29 211.328 1148.28 211.328C1127.11 211.328 1110.54 196.454 1110.54 173.499C1110.54 150.36 1128.03 133.833 1149.75 133.833ZM1171.29 174.784C1171.29 159.175 1165.03 139.342 1147.54 139.342C1135.39 139.342 1126.37 150.911 1126.37 171.112C1126.37 187.823 1133.92 205.819 1150.12 205.819C1166.32 205.819 1171.29 188.924 1171.29 174.784Z" fill="white"/>
<path d="M1206.25 188.19V156.053C1206.25 148.891 1206.25 147.973 1201.28 144.668L1199.62 143.566C1198.89 142.831 1198.89 140.811 1199.81 140.26C1204.04 138.791 1214.54 134.017 1218.22 131.262C1218.95 131.262 1219.87 131.629 1220.24 132.548C1219.87 136.771 1219.87 139.526 1219.87 141.179C1219.87 142.28 1220.61 143.199 1221.9 143.199C1229.63 138.424 1238.28 133.833 1247.67 133.833C1262.95 133.833 1269.21 144.3 1269.21 156.604V188.19C1269.21 201.412 1269.58 203.248 1276.21 204.166L1280.26 204.717C1281.55 205.635 1281.18 208.757 1279.89 209.308C1274.37 208.941 1269.03 208.757 1262.58 208.757C1255.96 208.757 1250.43 208.941 1245.46 209.308C1244.18 208.757 1243.81 205.635 1245.1 204.717L1248.59 204.166C1255.41 203.065 1255.59 201.412 1255.59 188.19V160.828C1255.59 150.36 1250.8 142.648 1238.28 142.648C1231.29 142.648 1225.21 145.586 1222.64 149.075C1220.24 152.197 1219.87 154.768 1219.87 160.093V188.19C1219.87 201.412 1220.24 203.065 1226.87 204.166L1230.18 204.717C1231.47 205.635 1231.1 208.757 1229.82 209.308C1224.85 208.941 1219.51 208.757 1213.06 208.757C1206.44 208.757 1200.91 208.941 1195.76 209.308C1194.47 208.757 1194.1 205.635 1195.39 204.717L1199.26 204.166C1206.07 203.248 1206.25 201.412 1206.25 188.19Z" fill="white"/>
<path d="M1400.58 177.722C1400.58 197.923 1385.3 211.695 1361.36 211.695C1345.9 211.695 1336.14 206.921 1332.65 204.901C1330.44 200.861 1328.04 187.823 1327.68 179.192C1328.6 177.906 1331.36 177.539 1332.09 178.641C1334.86 188.006 1342.4 206.003 1363.76 206.003C1379.22 206.003 1386.77 195.903 1386.77 184.884C1386.77 176.804 1385.11 167.806 1371.67 159.175L1354.19 147.79C1344.98 141.73 1334.3 131.262 1334.3 116.204C1334.3 98.7583 1347.93 84.6182 1371.86 84.6182C1377.57 84.6182 1384.19 85.72 1388.98 87.0055C1391.37 87.74 1393.95 88.1073 1395.42 88.1073C1397.08 92.5146 1398.74 102.798 1398.74 110.511C1398 111.613 1395.05 112.164 1394.13 111.062C1391.74 102.247 1386.77 90.3109 1369.1 90.3109C1351.06 90.3109 1347.19 102.247 1347.19 110.695C1347.19 121.346 1356.03 129.059 1362.84 133.282L1377.57 142.464C1389.16 149.626 1400.58 160.277 1400.58 177.722Z" fill="white"/>
<path d="M1420.67 188.19V156.053C1420.67 148.891 1420.67 147.973 1415.7 144.668L1414.04 143.566C1413.3 142.831 1413.3 140.811 1414.22 140.26C1418.46 138.791 1428.95 134.017 1433.19 131.262C1434.11 131.262 1434.84 131.629 1435.03 132.364C1434.66 138.791 1434.29 147.606 1434.29 155.135V188.19C1434.29 201.412 1434.66 203.248 1441.29 204.166L1445.15 204.717C1446.44 205.635 1446.07 208.757 1444.78 209.308C1439.26 208.941 1433.92 208.757 1427.48 208.757C1420.85 208.757 1415.33 208.941 1410.17 209.308C1408.89 208.757 1408.52 205.635 1409.81 204.717L1413.67 204.166C1420.48 203.248 1420.67 201.412 1420.67 188.19ZM1426.74 94.1673C1432.27 94.1673 1435.95 98.5746 1435.95 103.716C1435.95 110.327 1431.35 113.266 1426.19 113.266C1420.48 113.266 1416.8 109.042 1416.8 104.084C1416.8 98.0237 1421.22 94.1673 1426.74 94.1673Z" fill="white"/>
<path d="M1498.43 144.117H1477.63C1474.5 144.117 1474.32 144.668 1474.32 148.524V182.864C1474.32 193.515 1475.61 203.248 1487.76 203.248C1489.6 203.248 1491.25 202.881 1492.73 202.33C1494.38 201.779 1496.78 199.759 1497.33 199.759C1498.8 199.759 1499.54 201.779 1499.17 202.881C1495.86 206.737 1489.23 211.328 1479.84 211.328C1464.01 211.328 1460.69 202.514 1460.69 191.495V149.442C1460.69 144.484 1460.51 144.117 1456.83 144.117H1451.67C1450.57 143.382 1450.39 141.362 1451.12 140.26C1456.46 138.608 1461.06 136.22 1462.9 134.568C1465.3 132.364 1468.79 127.406 1470.64 123.733C1471.56 123.366 1473.77 123.366 1474.5 124.651V132.915C1474.5 136.22 1474.69 136.404 1477.82 136.404H1498.25C1500.46 138.057 1500.09 143.015 1498.43 144.117Z" fill="white"/>
<path d="M1553.52 161.746H1519.46C1514.68 161.746 1514.49 162.113 1514.49 166.704C1514.49 185.252 1525.35 201.044 1545.05 201.044C1551.13 201.044 1556.28 199.208 1561.99 192.046C1563.83 191.495 1565.12 192.597 1565.3 194.25C1559.23 206.737 1545.97 211.328 1536.4 211.328C1524.43 211.328 1515.05 206.186 1509.71 199.208C1504.18 192.046 1501.97 183.415 1501.97 175.335C1501.97 152.748 1516.89 133.833 1538.98 133.833C1554.81 133.833 1565.12 144.668 1565.12 155.686C1565.12 158.257 1564.75 159.726 1564.38 160.461C1563.83 161.562 1561.25 161.746 1553.52 161.746ZM1517.81 156.237H1530.88C1544.5 156.237 1548.55 155.502 1550.02 154.401C1550.58 154.033 1551.13 153.299 1551.13 150.911C1551.13 145.77 1547.63 139.342 1536.95 139.342C1526.09 139.342 1516.7 149.259 1516.52 155.319C1516.52 155.686 1516.52 156.237 1517.81 156.237Z" fill="white"/>
<path d="M1597.35 133.833C1605.08 133.833 1611.89 135.669 1613.55 137.139C1615.21 141.179 1616.5 147.055 1616.5 152.013C1615.76 153.299 1613 153.666 1612.08 152.564C1608.95 144.484 1603.43 139.159 1595.88 139.159C1588.7 139.159 1584.09 143.75 1584.09 150.36C1584.09 157.89 1591.83 161.93 1598.27 165.602C1608.03 171.112 1617.05 177.355 1617.05 190.394C1617.05 204.35 1604.16 211.328 1590.54 211.328C1581.89 211.328 1575.44 209.492 1570.84 205.819C1569.37 202.33 1568.26 193.332 1568.63 187.272C1569.55 186.17 1571.94 185.986 1572.86 187.088C1575.99 197.188 1581.89 206.003 1592.38 206.003C1599.01 206.003 1604.71 202.146 1604.71 194.25C1604.71 185.803 1597.35 181.212 1590.54 177.355C1579.86 171.295 1572.31 164.868 1572.31 154.768C1572.31 141.362 1583.36 133.833 1597.35 133.833Z" fill="white"/>
<path d="M595.449 351.476L617.357 343.58C620.118 342.662 620.486 341.009 620.486 338.254L620.671 329.807C620.855 323.012 618.646 313.83 607.232 313.83C602.077 313.83 595.818 316.401 595.449 322.094C595.265 325.032 595.081 327.236 593.608 328.338C590.847 330.542 585.876 331.827 583.115 331.827C581.458 331.827 580.538 330.909 580.538 329.256C580.538 319.707 601.34 306.669 614.779 306.669C628.034 306.669 634.478 314.381 633.926 328.154L632.821 360.107C632.453 368.555 634.11 376.084 641.289 376.084C643.13 376.084 644.787 375.533 645.892 374.982C646.812 374.431 647.733 373.696 648.285 373.696C649.021 373.696 649.574 374.798 649.574 376.084C649.574 377.002 643.13 384.164 634.11 384.164C629.691 384.164 625.273 382.511 622.143 378.471C621.407 377.369 620.302 375.9 619.198 375.9C617.909 375.9 615.7 377.553 612.018 379.573C607.968 381.776 603.918 384.164 598.763 384.164C593.424 384.164 589.006 382.695 585.876 379.94C582.378 376.818 580.169 372.227 580.169 367.085C580.169 359.924 583.667 355.7 595.449 351.476ZM594.345 364.882C594.345 368.004 596.554 375.9 605.943 375.9C609.625 375.9 615.332 373.145 617.173 371.309C619.382 369.105 619.382 366.534 619.566 362.678L619.934 351.843C619.934 349.823 619.198 349.456 618.093 349.456C616.989 349.456 613.859 350.191 610.545 351.293C599.684 354.965 594.345 357.72 594.345 364.882Z" fill="white"/>
<path d="M660.782 361.025V328.889C660.782 321.727 660.782 320.809 655.812 317.503L654.155 316.401C653.419 315.667 653.419 313.647 654.339 313.096C658.573 311.627 669.067 306.852 672.749 304.098C673.485 304.098 674.406 304.465 674.774 305.383C674.406 309.607 674.406 312.361 674.406 314.014C674.406 315.116 675.142 316.034 676.431 316.034C684.163 311.26 692.815 306.669 702.204 306.669C717.484 306.669 723.744 317.136 723.744 329.44V361.025C723.744 374.247 724.112 376.084 730.739 377.002L734.789 377.553C736.078 378.471 735.71 381.593 734.421 382.144C728.898 381.776 723.559 381.593 717.116 381.593C710.489 381.593 704.966 381.776 699.995 382.144C698.706 381.593 698.338 378.471 699.627 377.553L703.125 377.002C709.936 375.9 710.12 374.247 710.12 361.025V333.663C710.12 323.196 705.334 315.483 692.815 315.483C685.82 315.483 679.744 318.421 677.167 321.911C674.774 325.032 674.406 327.603 674.406 332.929V361.025C674.406 374.247 674.774 375.9 681.401 377.002L684.715 377.553C686.004 378.471 685.636 381.593 684.347 382.144C679.376 381.776 674.037 381.593 667.594 381.593C660.967 381.593 655.444 381.776 650.289 382.144C649 381.593 648.632 378.471 649.921 377.553L653.787 377.002C660.598 376.084 660.782 374.247 660.782 361.025Z" fill="white"/>
<path d="M812.106 274.165V354.782C812.106 369.289 812.29 376.084 817.445 376.084C819.47 376.084 822.6 375.165 825.361 374.247C826.65 374.615 826.834 379.206 825.177 380.124C817.445 381.226 806.031 383.98 800.876 386C799.772 386 798.851 385.449 798.851 384.531V381.409C798.851 378.655 798.851 376.451 798.483 375.716H797.747C789.646 381.226 783.387 384.164 774.55 384.164C754.116 384.164 740.492 368.187 740.492 348.905C740.492 323.196 760.007 306.669 785.044 306.669C791.303 306.669 795.353 307.587 797.378 308.321C798.299 308.321 798.483 307.22 798.483 305.75V278.021C798.483 267.186 798.299 266.085 792.776 262.779L790.935 261.677C790.014 261.126 790.014 258.556 790.935 258.005C795.537 256.535 804.19 253.781 810.817 250.292C811.554 250.292 812.29 250.659 812.658 251.394C812.474 256.903 812.106 266.085 812.106 274.165ZM798.483 363.413V327.236C798.483 323.563 797.747 321.911 796.458 320.074C793.696 316.218 788.173 312.361 780.994 312.361C764.241 312.361 755.588 326.869 755.588 342.845C755.588 359.556 764.977 375.349 783.019 375.349C787.989 375.349 794.249 373.145 797.194 370.207C798.299 369.105 798.483 366.351 798.483 363.413Z" fill="white"/>
<path d="M922.388 272.328V354.047C922.388 373.329 922.756 376.084 933.434 377.002L939.325 377.553C940.429 378.287 940.061 381.593 938.957 382.144C928.463 381.776 922.204 381.593 914.84 381.593C907.476 381.593 901.033 381.776 889.251 382.144C888.146 381.593 887.778 378.471 889.251 377.553L895.878 377.002C906.372 376.084 907.292 373.329 907.292 354.047V271.961C907.292 266.268 907.292 266.085 901.769 266.085H891.644C883.728 266.085 873.602 266.452 869 270.676C864.582 274.716 862.741 278.756 860.716 283.347C859.243 284.448 856.665 283.53 855.929 282.061C858.875 273.797 861.636 262.045 862.925 254.699C863.477 254.332 865.87 254.148 866.423 254.699C867.527 260.576 873.602 260.392 882.071 260.392H956.63C966.571 260.392 968.228 260.025 970.99 255.25C971.91 254.883 973.935 255.066 974.303 255.801C972.278 263.33 970.989 278.205 971.542 283.714C970.805 285.183 967.676 285.183 966.755 284.081C966.203 279.49 964.914 272.696 962.153 270.676C957.919 267.554 950.923 266.085 940.798 266.085H927.727C922.204 266.085 922.388 266.268 922.388 272.328Z" fill="white"/>
<path d="M964.889 361.025V328.889C964.889 321.727 964.889 320.809 959.918 317.503L958.261 316.401C957.525 315.667 957.525 313.647 958.445 313.096C962.68 311.627 972.437 306.852 977.039 304.098C977.96 304.281 978.512 304.649 978.512 305.383V316.034C978.512 316.952 978.696 317.503 979.064 317.687C985.508 312.361 992.503 306.669 999.315 306.669C1003.92 306.669 1007.6 309.607 1007.6 314.014C1007.6 320.074 1002.63 322.461 999.683 322.461C997.842 322.461 996.922 321.911 995.633 321.176C992.872 319.34 990.11 318.238 987.533 318.238C984.587 318.238 982.378 319.891 980.905 321.911C979.064 324.481 978.512 329.807 978.512 336.051V361.025C978.512 374.247 978.88 376.451 985.876 377.002L992.503 377.553C993.792 378.471 993.424 381.593 992.135 382.144C983.483 381.776 978.144 381.593 971.7 381.593C965.073 381.593 959.55 381.776 954.764 382.144C953.475 381.593 953.107 378.471 954.395 377.553L957.893 377.002C964.705 375.9 964.889 374.247 964.889 361.025Z" fill="white"/>
<path d="M1024.28 351.476L1046.19 343.58C1048.95 342.662 1049.32 341.009 1049.32 338.254L1049.5 329.807C1049.69 323.012 1047.48 313.83 1036.06 313.83C1030.91 313.83 1024.65 316.401 1024.28 322.094C1024.1 325.032 1023.91 327.236 1022.44 328.338C1019.68 330.542 1014.71 331.827 1011.95 331.827C1010.29 331.827 1009.37 330.909 1009.37 329.256C1009.37 319.707 1030.17 306.669 1043.61 306.669C1056.87 306.669 1063.31 314.381 1062.76 328.154L1061.65 360.107C1061.29 368.555 1062.94 376.084 1070.12 376.084C1071.96 376.084 1073.62 375.533 1074.72 374.982C1075.64 374.431 1076.57 373.696 1077.12 373.696C1077.85 373.696 1078.41 374.798 1078.41 376.084C1078.41 377.002 1071.96 384.164 1062.94 384.164C1058.52 384.164 1054.11 382.511 1050.98 378.471C1050.24 377.369 1049.14 375.9 1048.03 375.9C1046.74 375.9 1044.53 377.553 1040.85 379.573C1036.8 381.776 1032.75 384.164 1027.6 384.164C1022.26 384.164 1017.84 382.695 1014.71 379.94C1011.21 376.818 1009 372.227 1009 367.085C1009 359.924 1012.5 355.7 1024.28 351.476ZM1023.18 364.882C1023.18 368.004 1025.39 375.9 1034.78 375.9C1038.46 375.9 1044.16 373.145 1046.01 371.309C1048.21 369.105 1048.21 366.534 1048.4 362.678L1048.77 351.843C1048.77 349.823 1048.03 349.456 1046.93 349.456C1045.82 349.456 1042.69 350.191 1039.38 351.293C1028.52 354.965 1023.18 357.72 1023.18 364.882Z" fill="white"/>
<path d="M1089.62 361.025V328.889C1089.62 321.727 1089.62 320.809 1084.64 317.503L1082.99 316.401C1082.25 315.667 1082.25 313.647 1083.17 313.096C1087.41 311.627 1097.9 306.852 1102.13 304.098C1103.05 304.098 1103.79 304.465 1103.97 305.199C1103.61 311.627 1103.24 320.441 1103.24 327.971V361.025C1103.24 374.247 1103.61 376.084 1110.23 377.002L1114.1 377.553C1115.39 378.471 1115.02 381.593 1113.73 382.144C1108.21 381.776 1102.87 381.593 1096.43 381.593C1089.8 381.593 1084.28 381.776 1079.12 382.144C1077.83 381.593 1077.46 378.471 1078.75 377.553L1082.62 377.002C1089.43 376.084 1089.62 374.247 1089.62 361.025ZM1095.69 267.003C1101.21 267.003 1104.9 271.41 1104.9 276.552C1104.9 283.163 1100.29 286.101 1095.14 286.101C1089.43 286.101 1085.75 281.878 1085.75 276.919C1085.75 270.859 1090.17 267.003 1095.69 267.003Z" fill="white"/>
<path d="M1143.27 274.165V361.025C1143.27 374.247 1143.63 376.084 1150.26 377.002L1154.68 377.553C1155.97 378.471 1155.6 381.593 1154.31 382.144C1148.24 381.776 1142.9 381.593 1136.45 381.593C1129.83 381.593 1124.3 381.776 1118.78 382.144C1117.49 381.593 1117.12 378.471 1118.41 377.553L1122.65 377.002C1129.46 376.084 1129.64 374.247 1129.64 361.025V278.021C1129.64 267.186 1129.46 266.085 1123.94 262.779L1122.09 261.677C1121.17 261.126 1121.17 258.556 1122.09 258.005C1126.7 256.535 1135.35 253.781 1141.98 250.292C1142.71 250.292 1143.45 250.659 1143.82 251.394C1143.63 256.903 1143.27 266.085 1143.27 274.165Z" fill="white"/>
<path d="M1187.75 306.669C1195.49 306.669 1202.3 308.505 1203.95 309.974C1205.61 314.014 1206.9 319.891 1206.9 324.849C1206.16 326.134 1203.4 326.501 1202.48 325.4C1199.35 317.32 1193.83 311.994 1186.28 311.994C1179.1 311.994 1174.5 316.585 1174.5 323.196C1174.5 330.725 1182.23 334.765 1188.67 338.438C1198.43 343.947 1207.45 350.191 1207.45 363.229C1207.45 377.186 1194.57 384.164 1180.94 384.164C1172.29 384.164 1165.85 382.327 1161.24 378.655C1159.77 375.165 1158.67 366.167 1159.03 360.107C1159.96 359.005 1162.35 358.822 1163.27 359.924C1166.4 370.024 1172.29 378.838 1182.78 378.838C1189.41 378.838 1195.12 374.982 1195.12 367.085C1195.12 358.638 1187.75 354.047 1180.94 350.191C1170.26 344.131 1162.72 337.703 1162.72 327.603C1162.72 314.198 1173.76 306.669 1187.75 306.669Z" fill="white"/>
<path d="M1247.41 354.047V284.265C1247.41 270.676 1246.68 267.186 1238.39 266.452L1232.5 265.901C1231.03 264.799 1231.21 262.045 1232.69 261.31C1242.63 260.392 1255.15 259.841 1272.27 259.841C1283.86 259.841 1294.91 260.759 1303.19 264.983C1311.11 268.839 1317.19 276.185 1317.19 287.938C1317.19 301.159 1309.45 307.954 1298.41 313.096C1298.41 314.932 1299.88 315.483 1301.91 315.85C1311.85 317.687 1326.57 326.869 1326.57 346.518C1326.57 367.82 1310.74 382.144 1277.61 382.144C1272.27 382.144 1263.25 381.593 1255.51 381.593C1247.41 381.593 1241.15 381.96 1234.34 382.144C1233.24 381.593 1232.87 378.655 1233.97 377.553L1237.29 377.002C1247.05 375.349 1247.41 373.329 1247.41 354.047ZM1262.51 324.114V351.293C1262.51 357.904 1262.88 367.269 1266.38 371.309C1269.87 375.533 1275.4 376.451 1280.92 376.451C1297.3 376.451 1309.82 369.105 1309.82 350.742C1309.82 336.234 1302.46 319.34 1273.19 319.34C1263.25 319.34 1262.51 320.441 1262.51 324.114ZM1262.51 271.41V308.689C1262.51 313.83 1262.69 314.198 1272.08 313.83C1290.86 313.096 1300.99 307.587 1300.99 290.325C1300.99 272.328 1287.55 265.534 1273.56 265.534C1269.5 265.534 1266.74 265.901 1265.09 266.636C1263.25 267.186 1262.51 268.105 1262.51 271.41Z" fill="#FCBA19"/>
<path d="M1338 321.727C1338 301.343 1347.2 283.898 1361.2 273.063C1374.63 262.596 1391.76 257.454 1410.9 257.454C1420.84 257.454 1434.83 259.474 1443.49 261.861C1445.7 262.412 1446.98 262.779 1448.64 262.596C1448.83 266.819 1449.75 278.388 1451.22 289.59C1450.3 290.876 1447.54 291.059 1446.25 289.958C1443.49 277.47 1435.2 263.146 1408.51 263.146C1380.34 263.146 1356.41 280.959 1356.41 318.972C1356.41 357.536 1380.89 378.838 1411.09 378.838C1434.83 378.838 1445.33 363.413 1449.56 352.578C1450.85 351.66 1453.61 352.027 1454.35 353.313C1453.06 362.862 1448.27 374.982 1445.51 378.471C1443.3 378.838 1441.09 379.573 1439.07 380.307C1435.02 381.776 1421.76 384.531 1409.98 384.531C1393.41 384.531 1377.58 381.226 1364.14 372.227C1349.41 362.127 1338 345.416 1338 321.727Z" fill="#FCBA19"/>
</svg>
