<?xml version="1.0" encoding="UTF-8"?>
<svg xmlns="http://www.w3.org/2000/svg" id="d" viewBox="0 0 93.6 93.6">
  <path d="M4.88486,86.4c-2.96835,0-4.18243-2.10313-2.69741-4.67363L44.10145,9.12787c1.48333-2.5705,3.9132-2.5705,5.39648,0l41.91574,72.59849c1.48328,2.5705,.26923,4.67363-2.69915,4.67363H4.88486Z" fill="#2d2a26"></path>
  <path d="M64.34254,56.88661c-.32173-.10666-.93976-.14227-1.0397,.19983-.09818,.34034,.38441,.68239,.70273,.79076,.49784,.16934,.94488,.08635,1.0397-.19472,.09482-.27942-.2066-.62146-.70273-.79587" fill="#ffd100"></path>
  <path d="M88.53827,82.14211L47.69949,11.4097c-.49443-.85681-1.30381-.85681-1.79995,0L5.06078,82.14211c-.49445,.85676-.08973,1.55777,.90083,1.55777H87.63912c.98891,0,1.39357-.70101,.89915-1.55777m-54.55439-12.61649l.40637,8.37146c-1.82196-.03214-3.12412-1.43757-3.3256-2.74307l-.21678-5.95347c2.67372-.43856,4.43135-2.42817,5.0562-4.26363l2.26389-.65357c-.49272,1.46294-2.6652,4.96459-4.18408,5.24228m34.48383-7.57392c-.51985,.38947-1.73225,.06433-2.24363-.2455-4.02492-2.48402-2.38749-1.23269-.92281,1.849-.02878,.2269-.29972,.30648-.67395,.39624-.75353,.18287-1.60017-1.03968-3.18169-2.39597-1.11758-.95835-1.35632-1.11921-2.23515-.56046-.87879,.56046-4.06218,3.98252-5.82828,4.23144l.96519,12.3794c-1.83214,.13378-3.0293-1.35458-3.12583-2.67367l-.762-9.38572-2.30285,.41654-2.15728,11.80877c-1.37833-.20825-2.78374-1.38337-2.56024-3.35261l1.63572-8.84221s-2.3012-1.72204-6.74438-1.88455l-2.93106,.67895c-.68578,2.12675-2.85996,4.17728-5.03419,4.17728l-3.03943-.06098-2.35029,9.2215c-1.3868-.14903-2.67202-1.23439-2.53317-3.21888,0,0,.54693-2.35872,1.06678-4.61413-.0847,.07622-.17611,.17275-.25398,.23196-.50631,.38776-1.23271,.28788-1.62048-.21843-.38606-.50796-.28618-1.23269,.22014-1.61874,.43345-.3302,2.34011-2.21816,4.74455-8.55604,.59437-1.56795,1.54767-3.42372,3.58134-4.83928,.72469-.64345,1.73561-1.21579,3.11224-1.60526,4.54648-1.28854,14.93312,1.1667,18.49411,1.25811,2.02013,.0525,7.42173-1.1328,8.39028-1.14127,.02372,0,.05586,.00341,.07958,.00512,.35222-1.43592,1.61877-2.36889,2.85825-2.08779l-.56217,2.47214c.00677,.00171,.01359,.00341,.01865,.00341l.19642-.31495c.79244-1.27671,2.31809-1.76607,3.41195-1.08707l-1.57645,2.55001c.5893,.67223,1.08032,1.62386,1.23612,2.93442,.02201,.04744,2.83965,2.78203,2.84642,2.76849,.92287,.5232,.35222,.84322-.21843,1.32074" fill="#ffd100"></path>
</svg>
