<?xml version="1.0" encoding="UTF-8"?>
<svg xmlns="http://www.w3.org/2000/svg" id="d" viewBox="0 0 93.6 93.6">
  <g>
    <path d="M4.88485,86.4c-2.96835,0-4.18243-2.10313-2.69741-4.67363L44.10145,9.12787c1.48333-2.5705,3.9132-2.5705,5.39653,0l41.91569,72.59849c1.48328,2.5705,.26923,4.67363-2.69915,4.67363H4.88485Z" fill="#2d2a26"></path>
    <path d="M88.5379,82.14392L47.69917,11.40805c-.49443-.8568-1.30381-.8568-1.79829,0L5.06212,82.14392c-.49613,.8568-.09144,1.55784,.89915,1.55784H87.63881c.98885,0,1.39357-.70104,.8991-1.55784" fill="#ffd100"></path>
  </g>
  <path d="M62.2853,49.65437c-4.0453,.7704-8.4203,3.14578-11.71195,7.14951-1.3131,1.59916-2.1257,3.15162-2.66154,4.3539-.10593-.46691-.23547-.86378-.38857-1.1731,.18837-.33851,.42985-.76456,.70066-1.24898,.68888-1.27232,1.74295-2.96486,2.24353-4.88501,.31202-1.20228,.41219-3.36756-.50057-4.06209-.34153-.27431-.87148-.30349-1.15412-.01167-.76549,.74705,.08244,1.76841,.36508,2.08357-.25915-.31516-1.07757-1.32485-.3062-2.02521,.25915-.24513,.71255-.20427,1.01286,.05253,.83609,.67701,.63,2.82479,.31202,3.89283-.54768,1.83844-1.63691,3.46678-2.37884,4.72159-.2297,.37936-.43574,.71787-.61239,1.00969-.12366-.1284-.25903-.19844-.40047-.19844-.14721,0-.28264,.07009-.41219,.19844-.17665-.29182-.38274-.62449-.61239-1.00969-.74193-1.25481-1.83128-2.88315-2.37884-4.72159-.27681-.9163-.35925-1.88514-.21204-2.77226,.30031-1.90848,1.98444-1.56414,1.83134-.29182-.07072,.52527-.47702,.99218-.62423,1.17894,.22965-.26263,1.18356-1.34236,.38857-2.11859-.28264-.29182-.81254-.26263-1.15412,.01167-.35919,.27431-.52989,.74121-.61828,1.18478-.18248,.91047-.12954,1.92015,.12371,2.87731,.49462,1.92015,1.54864,3.61269,2.23752,4.88501,.27681,.49025,.51235,.91047,.70077,1.25481-.17659,.35602-.3238,.8346-.43574,1.40656-.52406-1.21979-1.33077-2.8423-2.69092-4.51732-1.47798-1.82094-3.53302-3.77611-6.18278-5.17683-1.98444-1.06221-4.20435-1.79175-5.45262-2.02521-2.14336-.41438-3.43297,.74121-3.35054,2.44542,.02944,.48442,.12371,.86961,.19432,1.2373l.21204,1.12641c1.68407,8.8187,1.24244,10.49373,4.69302,10.55209-1.03046,1.09723-1.16001,2.41624-.91864,3.95703,.51823,3.29169,2.53794,6.2157,5.14643,7.95492,4.6872,2.88899,6.58914-1.89681,8.95037-6.04061,.01761,.29182,.03527,.58363,.06477,.86961,.17665,1.34819,.42985,1.9435,.44163,1.99603h.11182c.01178-.05253,.26504-.67118,.43574-1.99603,.04128-.321,.06483-.65367,.07661-.98634,.38268,.67701,.79487,1.40656,1.22478,2.17695,.47101,.82292,.91264,1.67503,1.51325,2.56215,5.18771,7.56973,14.62675-6.2332,10.45773-10.58127,1.35432-.02335,2.35535-.36769,2.8618-1.71588,.33558-.86378,2.18458-10.78554,2.20814-11.11238,.10005-1.61077-1.08352-2.87731-3.35054-2.46877Z" fill="#2d2a26"></path>
</svg>
