<?xml version="1.0" encoding="UTF-8"?>
<svg xmlns="http://www.w3.org/2000/svg" id="d" viewBox="0 0 93.6 93.6">
  <path d="M4.88485,86.4c-2.96835,0-4.18243-2.10313-2.69741-4.67363L44.10145,9.12787c1.48333-2.5705,3.9132-2.5705,5.39648,0l41.91574,72.59849c1.48328,2.5705,.26923,4.67363-2.69915,4.67363H4.88485Z" fill="#2d2a26"></path>
  <path d="M88.53894,82.14319L47.70015,11.40909c-.49613-.8568-1.30552-.8568-1.79995,0L5.06142,82.14319c-.49443,.8569-.08973,1.55795,.89915,1.55795H87.63808c.99061,0,1.39528-.70104,.90085-1.55795m-54.0549-3.62542c-1.24454-.02542-2.53823-.48256-2.53823-1.93208l-.68919-5.35266c.80432-.97534,2.00489-1.91679,3.63891-1.97952-.54528,.60451-1.25643,1.3869-1.25643,1.3869l.84494,7.87737Zm32.66187-20.127c-.01183,.08299-1.34955,8.62245-1.41052,8.98315-.05927,.35729-.36405,.61299-.7264,.61299-.07452,0-.13885-.01013-.20996-.03049-.07281-.02201-1.4004-.10666-1.47486-.10666-.14056,0-.2591,.03214-.381,.10666-.12025,.07286-1.20057,2.49092-1.27503,2.61287-.11518,.18965-.18122,.34541-.48771,.34541-.34374,0-.5554-.21673-.75182-.39967l-2.40785-2.28938c-.33697-.34375-.7975-.64172-1.13789-.6502-.27429-.00847-.50626,.07111-.73317,.2218-.22525,.14738-5.18317,3.42564-5.18317,3.42564l.69932,7.29488c-1.33771,.08981-2.81934-.51305-3.06485-2.20979l-.61297-5.66086c-.51308-.09819-1.06678-.2065-1.65438-.31998v8.19064c-1.60524,0-2.90058-.74507-2.90058-2.1945l-.01865-6.56169c-3.62868-.7028-7.20832-1.39537-7.23369-1.39878-.04744-.01178-.09146-.01685-.14056-.01685-.0711,0-.13208,.02201-.19471,.04062-1.74579-.24557-3.38322,.33352-4.74124,1.66285l-.00506-.04744-1.20904,1.42917,.86866,7.08662c-1.36986,.08981-2.53823-.48256-2.53823-1.93208l-.87036-7.52856,1.11592-2.59251c.2252-.51987,.17947-.87375-.05591-1.10743,0,0-.25569-.32174-.37082-.50126l-.0186-.02201v-.00506c-.68413-1.06847-1.11422-2.57722-1.11422-4.2503,0-.27265,.01695-.53847,.03726-.80429,0,0-.18794,.25394-.39283,.52152-.20148,.26582-.29631,.55201-.29631,.88563v5.54738c0,.33352-.3793,.61299-.61297,.70104-.23709-.08806-.60455-.36752-.60455-.70104v-5.81662c0-.71799,.22184-1.32757,.68072-1.87793,.46058-.55036,2.15387-2.66703,2.59921-3.03104,.92116-.74848,1.87276-1.21419,3.61007-1.63071,.61468-.15069,15.11771-3.35795,15.77811-3.50522,.66036-.14562,1.23271-.21001,1.91172-.21001,1.14801,0,2.12338,.18459,3.19523,.59945,1.07184,.41827,6.38198,2.4842,6.38198,2.4842,0,0,1.87617-.5148,2.14204-.58932,.26923-.07617,.50631-.10666,.78567-.10666,.93305,0,1.73225,.38602,2.31138,1.12097,.5012,.63841,1.94898,2.47562,2.32827,2.95487-.00171,0,.02031,.02708,.08971,.11679,.21337,.2744,.31496,.56565,.31496,.91106,0,.08465-.00506,.15751-.02031,.24216" fill="#ffd100"></path>
  <path d="M61.22957,57.83204c-.79078-.3082-1.42913-2.83291-1.63402-1.96423-.19642,.83644-.15239,3.67452,1.73561,3.67452,.89574,0,.99733-.33187,.99733-.84161s-.24044-.53506-1.09892-.86868" fill="#ffd100"></path>
</svg>
