<?xml version="1.0" encoding="UTF-8"?>
<svg xmlns="http://www.w3.org/2000/svg" id="f" data-name="Prohibited (strikethrough) (1:1)" viewBox="0 0 93.6 93.6">
  <path d="M7.2,46.79915c.01867-21.8847,17.75518-39.62291,39.59909-39.59913,21.91523-.02377,39.65172,17.71444,39.6008,39.59913,.05092,21.87449-17.68557,39.6127-39.6008,39.60084-21.84391,.01186-39.58042-17.72635-39.59909-39.60084" fill="#fff"></path>
  <path d="M35.63271,49.33859c1.22375-.32927,2.49836-.18502,3.61857,.39205l2.14029-.58385c.68061-1.00817,1.68707-1.73291,2.87518-2.05198,1.17449-.31399,2.39482-.19688,3.47939,.32078l11.28179-3.07548c13.34568-3.96142,10.92195-12.85854,10.92195-12.85854l-11.314,3.08227-6.28501-4.35864-2.18271,.53465,6.22052,4.36709-34.3036,9.41142,2.50686,9.2077,8.07904-2.20136c.68061-1.07944,1.72271-1.8551,2.96173-2.18608" fill="#2d2a26"></path>
  <path d="M32.02263,53.04071l-7.15229,1.91622,.33942,1.27125,6.67877-1.7889c-.02036-.47187,.02377-.94198,.1341-1.39856" fill="#2d2a26"></path>
  <path d="M77.0279,40.98088l-27.84041,7.45951c.33269,.33777,.61275,.72137,.83678,1.13891l27.00364-7.23549v-1.36293Z" fill="#2d2a26"></path>
  <path d="M72.42587,71.13399c.16124,.1154,.33098,.23422,.50409,.35476,.01357-.01362,.02548-.02548,.03905-.03905,.55158-.60934,.99631-1.33744,1.37815-2.09445-.14596-.10012-.29022-.20366-.43618-.30721-1.03702-.73831-2.21156-1.57509-3.72382-1.57509-1.46983,0-2.47464,.76887-3.36062,1.4444-.94027,.71795-1.82625,1.39515-3.43189,1.39515-1.59031,0-2.41859-.6602-3.37756-1.42229-.8792-.69931-1.8738-1.49024-3.35891-1.49024-1.49527,0-2.57647,.80963-3.53031,1.52417-.99123,.7451-1.85002,1.38836-3.21295,1.38836-1.30688,0-2.08932-.59571-2.994-1.28311-.96575-.73323-2.06047-1.56659-3.73739-1.56659-1.65314,0-2.68167,.81129-3.58972,1.52412-.90297,.71117-1.68199,1.32558-3.21637,1.32558-1.54789,0-2.32184-.6212-3.21803-1.33915-.88256-.70775-1.88395-1.51055-3.4811-1.51055-1.50039,0-2.67488,.813-3.71191,1.53096-.98103,.67719-1.90607,1.31875-3.05683,1.31875-.40904,0-.7841-.08148-1.14222-.21724v2.65795c.35812,.07464,.73831,.11877,1.14222,.11877,1.9502,0,3.37248-.98269,4.51305-1.77362,.83507-.57707,1.55302-1.07437,2.25569-1.07437,.66704,0,1.10322,.32414,1.87887,.94705,1.00139,.80285,2.37281,1.90094,4.82025,1.90094,2.42201,0,3.74081-1.03873,4.7999-1.87209,.81471-.64155,1.27466-.9759,2.00619-.9759,.77566,0,1.3103,.37677,2.18779,1.04381,1.05743,.80451,2.37446,1.80418,4.54361,1.80418,2.21664,0,3.62028-1.0523,4.74898-1.89923,.83843-.62798,1.38328-1.01325,1.99428-1.01325,.5635,0,.99294,.32078,1.76518,.93519,1.04893,.83336,2.4865,1.97729,4.97129,1.97729,2.46956,0,3.92412-1.10829,4.98491-1.91959,.79094-.60255,1.23053-.91825,1.8076-.91825,.69418,0,1.41042,.50921,2.2387,1.09985" fill="#2d2a26"></path>
  <path d="M76.65973,67.54225c-.68568-.0102-1.00646,.6399-1.72612,.0102l-.00171-.00171c-2.91589-2.54084-6.33422-2.54762-9.08721-.0662-1.63279,1.34931-2.9074,1.36971-4.39081,.0662-1.78895-1.5581-3.76629-2.16065-5.66045-1.82459l.00171,.00171c-.12732,.02036-.25458,.04921-.3819,.07806-1.0608,.26142-2.09103,.81979-3.03979,1.67692-.83336,.68739-1.57338,1.02687-2.29641,1.02687-.72308,.02207-1.42576-.29535-2.18442-.95726l-.00171-.00171c-2.91589-2.54084-6.33422-2.54762-9.08721-.0662-1.63274,1.34931-2.9074,1.36971-4.39081,.0662-2.9176-2.53913-6.33422-2.54762-9.08043-.06791-1.31709,1.08457-2.39995,1.30859-3.55072,.6789v-4.85082l55.2276-14.74933-.34963,18.98066Z" fill="#2d2a26"></path>
  <path d="M33.23074,54.23504c-.0187,2.10466,1.61916,3.78494,3.72548,3.83415,2.0656-.04921,3.7001-1.7312,3.70346-3.82902-.00337-2.01127-1.67179-3.67633-3.72382-3.71538-2.05032,.03905-3.72382,1.70411-3.70512,3.71025m1.97221,.39718c-.23422-1.25089,.84185-2.32355,2.09103-2.08767,.69931,.1341,1.26109,.69589,1.39514,1.3952,.23764,1.25089-.84014,2.32863-2.09269,2.09103-.69931-.1341-1.2628-.69931-1.39349-1.39856" fill="#2d2a26"></path>
  <path d="M41.86105,51.98126c-.01865,2.10466,1.61922,3.78494,3.72553,3.83415,2.0656-.04921,3.70175-1.7312,3.70346-3.82907-.00171-2.00956-1.67184-3.67627-3.72382-3.71362-2.05032,.03735-3.72382,1.70406-3.70517,3.70854m1.93999,.05263c0-.98103,.79601-1.77533,1.77533-1.77533,.98103,0,1.77704,.7943,1.77704,1.77533s-.79601,1.77533-1.77704,1.77533c-.97932,0-1.77533-.7943-1.77533-1.77533" fill="#2d2a26"></path>
  <path d="M46.79992,10.05568C26.50561,10.05568,10.05226,26.50736,10.05226,46.80169c0,20.29096,16.45335,36.74606,36.74766,36.74606s36.74768-16.4551,36.74768-36.74606c0-20.29433-16.45338-36.74601-36.74768-36.74601M17.10273,46.80169c-.00168-7.19472,2.55101-13.79373,6.79591-18.92969l41.7631,41.89217c-5.12917,4.21263-11.6959,6.73819-18.86182,6.73306-16.39226,.0102-29.70059-13.29985-29.69719-29.69554m52.60532,18.93653L27.9381,23.84097c5.13088-4.2262,11.69932-6.75518,18.86182-6.73819,16.4381-.04071,29.74472,13.26592,29.69551,29.69891,.02207,7.19478-2.52892,13.79378-6.78739,18.93653" fill="#c40d3c"></path>
</svg>
