<?xml version="1.0" encoding="UTF-8"?>
<svg xmlns="http://www.w3.org/2000/svg" id="f" data-name="Prohibited (strikethrough) (1:1)" viewBox="0 0 93.6 93.6">
  <path d="M7.2,46.79918c.0186-21.88496,17.75442-39.62282,39.59997-39.59916,21.91485-.02367,39.65067,17.7142,39.59992,39.59916,.05075,21.87819-17.68507,39.61605-39.59992,39.60081-21.84555,.01524-39.58137-17.72262-39.59997-39.60081" fill="#fff"></path>
  <path d="M63.16906,42.03c-1.33944,0-2.61449,.28112-3.77276,.78234-.57061-1.39363-3.66093-8.91384-3.83198-9.32194,1.13801-.13545,3.56109-.43181,3.56109-.43181l2.42143-1.28185c.29466-.15917,.4657-.45889,.4657-.77216,0-.14056-.0339-.27942-.10335-.4098-.22686-.42504-.7586-.58927-1.18359-.36071,0,0-1.8779,.99742-2.1336,1.13116-.29972,.03561-3.88614,.46737-3.88614,.46737-.62487,.08299-1.09729,.62147-1.09729,1.25141l.09312,.48091c0,.00171,1.28012,3.09205,1.84576,4.45524h-15.75978l-1.31397-3.24786c.23874-.07452,.48767-.28448,.75519-.38443,.27094-.09989,.57236-.1524,1.02784-.25399,.4115-.09142,1.24462-.16764,1.71874-.36913,.41485-.06268,.73488-.41657,.73488-.84502,0-.33864-.19983-.6316-.48767-.76875-.13379-.09147-.4809-.11178-.4809-.11178h-6.82242l-.0186,.01354c-.78909,.07452-1.41391,.72984-1.41391,1.54096,0,.85345,1.79662,1.51388,2.6517,1.51388,.0847,0,.51139-.00171,.62316-.01018l1.61203,3.96586-3.19022,4.31297c-1.42574-.84838-3.08521-1.34624-4.86152-1.34624-5.25772,0-9.53169,4.27571-9.53169,9.5336s4.27396,9.5336,9.53169,9.5336c4.9936,0,9.09311-3.85749,9.49277-8.74956h1.46641c.36406,1.32082,1.57141,2.29111,3.00734,2.29111,.2252,0,.44364-.02372,.65701-.06945l.49614,1.18537h-.32344c-.35558,0-.64176,.28955-.64176,.64348,0,.35218,.28618,.63837,.64176,.63837h2.63987c.35388,0,.64006-.28619,.64006-.63837,0-.35394-.28618-.64348-.64006-.64348h-.92624l-.71964-1.71031c.78568-.56555,1.29707-1.48505,1.29707-2.52308,0-.57238-.15575-1.10067-.42333-1.56639l9.57907-9.55391,1.32249,3.23266c-2.56023,1.7069-4.2519,4.62624-4.2519,7.92996,0,5.25789,4.27732,9.5336,9.53339,9.5336,5.25948,0,9.53504-4.27571,9.53504-9.5336s-4.27557-9.5336-9.53504-9.5336m-27.87712,4.06916c1.2734,1.15653,2.14037,2.75,2.36557,4.54495h-5.21369c-.05591-.14733-.12702-.28955-.21166-.42334,.01354-.01354,.03044-.02537,.04403-.04573l3.01576-4.07588Zm-4.96989,12.86611c-4.0809,0-7.39979-3.31896-7.39979-7.40166,0-4.081,3.31889-7.39996,7.39979-7.39996,1.30218,0,2.52473,.34035,3.58817,.93644l-3.00734,4.06063c-.01524,.01866-.02542,.04232-.03896,.06775-.19472-.05586-.39791-.08976-.61128-.08976-1.29877,0-2.3571,1.05669-2.3571,2.3555,0,1.30216,1.05832,2.36051,2.3571,2.36051,.99735,0,1.84742-.62824,2.19116-1.50706h5.23405c-.39119,3.71352-3.53908,6.61762-7.35582,6.61762m1.00753-7.47107c0,.59434-.4826,1.07695-1.07693,1.07695-.59438,0-1.07527-.48261-1.07527-1.07695,0-.59439,.4809-1.07359,1.07527-1.07359,.59433,0,1.07693,.4792,1.07693,1.07359m9.96178-.85009h-1.48165c-.24045-2.49601-1.44946-4.70753-3.24437-6.2688l2.57553-3.47648,3.37139,8.05698c-.57913,.39967-1.016,.9923-1.2209,1.68829m4.30445,2.16749l-.62487-1.49352c-.13715-.32515-.51304-.48091-.83989-.34546-.32339,.13545-.47749,.5114-.34204,.83991l.64517,1.53249c-.0508,.00341-.09653,.01695-.14562,.01695-1.01771,0-1.84235-.82637-1.84235-1.84069,0-1.01938,.82465-1.84575,1.84235-1.84575,1.0143,0,1.84065,.82637,1.84065,1.84575,0,.49951-.20495,.95334-.5334,1.29033m.16588-4.04544c-.43852-.23534-.94143-.36913-1.47313-.36913-.05591,0-.10671,.00171-.15751,.00506-.00336-.00506-.00506-.01354-.00842-.02201l-3.62032-8.64967h14.31869l-9.05932,9.03575Zm17.40736,10.1991c-4.07579,0-7.39638-3.31896-7.39638-7.40166,0-2.40795,1.15992-4.54666,2.94801-5.89796l1.14132,2.79744,.09818,.19136c.61298,1.23276,1.3784,2.76524,2.81097,3.4663,.42333,.20655,.93472,.03049,1.14297-.38949,.05922-.12191,.0864-.25229,.0864-.37931,0-.31156-.17611-.61635-.47924-.76368-.9127-.45047-1.50873-1.64085-2.03366-2.69584,0,0-.04909-.09824-.0678-.13715-.00847-.02031-.52151-1.27508-1.21573-2.96678,.91094-.39791,1.91005-.62483,2.96496-.62483,4.08085,0,7.40145,3.31896,7.40145,7.39996,0,4.0827-3.32059,7.40166-7.40145,7.40166" fill="#2d2a26"></path>
  <path d="M46.79966,10.05064C26.50521,10.05064,10.05127,26.50329,10.05127,46.7999c0,20.29485,16.45394,36.74751,36.74839,36.74751s36.74668-16.45266,36.74668-36.74751c0-20.29661-16.45229-36.74927-36.74668-36.74927M17.09884,46.7999c0-7.19676,2.55181-13.79407,6.79865-18.93342l41.76742,41.89869c-5.1308,4.20972-11.70078,6.73617-18.86524,6.73281-16.39472,.01013-29.70252-13.29963-29.70082-29.69808m52.60971,18.93848L27.93607,23.83458c5.13075-4.22492,11.70254-6.75312,18.86359-6.73617,16.43875-.04062,29.74655,13.26914,29.69736,29.70149,.02201,7.19676-2.52975,13.79743-6.78847,18.93848" fill="#c40d3c"></path>
</svg>
